<svg xmlns="http://www.w3.org/2000/svg" viewBox="0 0 420 296"><defs><linearGradient id="bg" x1="0" x2="1" y1="0" y2="1"><stop stop-color="#252d42"/><stop offset=".45" stop-color="#121722"/><stop offset="1" stop-color="#07080d"/></linearGradient><radialGradient id="r" cx="72%" cy="20%" r="70%"><stop stop-color="#e54b3e" stop-opacity=".65"/><stop offset="1" stop-color="#e54b3e" stop-opacity="0"/></radialGradient><linearGradient id="gold" x1="0" x2="1" y1="0" y2="1"><stop stop-color="#fff3be"/><stop offset=".5" stop-color="#f8c94c"/><stop offset="1" stop-color="#b36d0b"/></linearGradient><filter id="s"><feDropShadow dx="0" dy="16" stdDeviation="14" flood-color="#000" flood-opacity=".45"/></filter></defs><rect width="420" height="296" rx="28" fill="url(#bg)"/><rect width="420" height="296" rx="28" fill="url(#r)"/><path d="M0 214c72-42 132-19 186-37 71-23 122-91 234-43v162H0Z" fill="#0b0e16" opacity=".72"/><g filter="url(#s)"><circle cx="320" cy="84" r="56" fill="url(#gold)"/><path d="m320 38 14 30 33 4-24 23 6 33-29-16-29 16 6-33-24-23 33-4 14-30Z" fill="#2a1600" opacity=".42"/></g><rect x="30" y="34" width="92" height="30" rx="15" fill="rgba(0,0,0,.38)" stroke="#fff" stroke-opacity=".13"/><text x="76" y="55" text-anchor="middle" fill="#f8c94c" font-family="Arial, sans-serif" font-size="13" font-weight="900">DEMO</text><text x="34" y="202" fill="#fff4cf" font-family="Arial, Noto Sans KR, sans-serif" font-size="31" font-weight="900">골든 파칭코</text><text x="34" y="236" fill="#9da7bd" font-family="Arial, sans-serif" font-size="18" font-weight="900" letter-spacing="1.5">GOLD</text></svg>