<svg xmlns="http://www.w3.org/2000/svg" viewBox="0 0 420 104" role="img" aria-labelledby="title"><title id="title">ThingBet logo</title><defs><linearGradient id="g" x1="0" x2="1" y1="0" y2="1"><stop stop-color="#fff3be"/><stop offset=".42" stop-color="#f8c94c"/><stop offset="1" stop-color="#b36d0b"/></linearGradient><filter id="s" x="-30%" y="-30%" width="160%" height="160%"><feDropShadow dx="0" dy="10" stdDeviation="10" flood-color="#000" flood-opacity=".55"/><feDropShadow dx="0" dy="0" stdDeviation="4" flood-color="#f8c94c" flood-opacity=".45"/></filter></defs><rect x="8" y="12" width="92" height="80" rx="24" fill="#151a26" stroke="#f8c94c" stroke-opacity=".45"/><path d="M28 36h52v15H62v32H46V51H28V36Z" fill="url(#g)" filter="url(#s)"/><path d="M116 72c26-8 39-24 43-48h28c-4 14-10 27-20 38 13 7 25 15 37 26l-18 17c-10-10-21-18-33-25-12 10-27 18-46 23L96 82c7-1 14-3 20-5v-5Zm17-42h22c-3 10-8 18-16 24-7 6-16 11-28 14l-10-19c16-4 26-10 32-19Zm91-4h25v79h-25V26Zm38 0h25v79h-25V26Zm41 10h84v20h-29v49h-26V56h-29V36Z" fill="url(#g)" filter="url(#s)"/><text x="116" y="96" fill="#f7e6ad" font-family="Arial, sans-serif" font-size="16" font-weight="800" letter-spacing="5">TTINGBET</text></svg>