<svg xmlns="http://www.w3.org/2000/svg" viewBox="0 0 720 440"><defs><linearGradient id="bg" x1="0" x2="1" y1="0" y2="1"><stop stop-color="#1b2131"/><stop offset=".52" stop-color="#11141d"/><stop offset="1" stop-color="#2c160d"/></linearGradient><linearGradient id="gold" x1="0" x2="1" y1="0" y2="1"><stop stop-color="#fff3be"/><stop offset=".5" stop-color="#f8c94c"/><stop offset="1" stop-color="#b36d0b"/></linearGradient><filter id="s"><feDropShadow dx="0" dy="24" stdDeviation="20" flood-color="#000" flood-opacity=".55"/></filter></defs><rect x="40" y="44" width="640" height="352" rx="42" fill="url(#bg)" stroke="#f8c94c" stroke-opacity=".24" filter="url(#s)"/><circle cx="560" cy="108" r="118" fill="#e54b3e" opacity=".18"/><circle cx="160" cy="328" r="146" fill="#f8c94c" opacity=".14"/><rect x="92" y="88" width="536" height="264" rx="30" fill="#080a10" stroke="#ffffff" stroke-opacity=".1"/><rect x="118" y="114" width="484" height="212" rx="24" fill="#131a27"/><path d="M118 260c90-76 168-34 232-62 72-31 110-116 252-68v196H118Z" fill="#1b2435"/><path d="M118 282c108-64 172-22 244-42 88-24 142-98 240-48v134H118Z" fill="#291a17"/><text x="360" y="196" text-anchor="middle" fill="url(#gold)" font-family="Arial, sans-serif" font-size="54" font-weight="900" letter-spacing="2">TTINGBET TV</text><text x="360" y="232" text-anchor="middle" fill="#d8ddeb" font-family="Arial, sans-serif" font-size="20" font-weight="700">365 DAYS · 24 HOURS · FRONTEND DEMO</text><rect x="136" y="286" width="118" height="30" rx="15" fill="url(#gold)"/><text x="195" y="307" text-anchor="middle" fill="#231100" font-family="Arial" font-size="14" font-weight="900">LIVE</text></svg>